<?xml version="1.0" encoding="UTF-8"?>
<svg version="1.1" xmlns="http://www.w3.org/2000/svg" width="3876" height="900">
<path d="M0 0 C43.56 0 87.12 0 132 0 C132.33 98.01 132.66 196.02 133 297 C136.96 291.06 136.96 291.06 141 285 C142.95619494 282.28704697 144.91653435 279.59970698 146.9375 276.9375 C147.70707031 275.91982544 147.70707031 275.91982544 148.4921875 274.8815918 C163.48877214 255.14715225 180.43676323 236.30220301 200 221 C201.14033382 220.06139682 202.27821124 219.11980405 203.4140625 218.17578125 C212.4873562 210.68155817 221.94510993 204.10993202 232 198 C232.9278833 197.43466553 232.9278833 197.43466553 233.87451172 196.85791016 C253.04298435 185.32578452 273.59608685 175.53055037 295 169 C296.10915771 168.65316162 296.10915771 168.65316162 297.24072266 168.29931641 C377.19539038 143.55018485 471.73072687 160.04813061 544.875 197.9375 C572.50247057 212.68052825 596.7232978 231.62416723 618.875 253.625 C619.60523376 254.34706131 619.60523376 254.34706131 620.35021973 255.08370972 C687.57017861 321.74241292 715.16980484 421.5141379 717 514 C717.02191406 515.10085938 717.04382812 516.20171875 717.06640625 517.3359375 C718.22772246 588.09880535 710.21065937 662.27163762 680 727 C679.58524414 727.88993652 679.17048828 728.77987305 678.74316406 729.69677734 C669.02753525 750.30136711 657.36544804 769.31562251 643 787 C642.52804199 787.58765137 642.05608398 788.17530273 641.56982422 788.78076172 C629.69046038 803.48037608 616.15817379 817.67105074 601 829 C600.32001953 829.51868652 599.64003906 830.03737305 598.93945312 830.57177734 C589.32318936 837.9024423 579.64441384 844.89815297 569.09375 850.82226562 C567.60194766 851.66140444 566.1155115 852.51011342 564.6328125 853.36523438 C487.75543554 897.65843079 378.65119542 914.7263815 291.9921875 891.83251953 C258.41909598 882.49144234 225.70185072 865.1801967 200.30078125 841.16015625 C198.3764891 839.35347788 196.41674726 837.6354265 194.4140625 835.91796875 C189.57803676 831.70112511 185.02689898 827.21297899 180.49145508 822.67675781 C179.07331716 821.26080053 177.64703335 819.85301711 176.22070312 818.4453125 C170.03858587 812.27608361 164.40682015 805.85480969 159 799 C158.39986084 798.25379395 157.79972168 797.50758789 157.18139648 796.73876953 C155.50285814 794.64896881 153.84326139 792.54537348 152.1875 790.4375 C151.66091797 789.77943359 151.13433594 789.12136719 150.59179688 788.44335938 C144.18089932 780.26703379 138.81907406 771.72861108 133 763 C132.67 807.88 132.34 852.76 132 899 C88.44 899 44.88 899 0 899 C0 602.33 0 305.66 0 0 Z M195.33007812 362.56054688 C191.65941509 366.53305591 188.29421968 370.71354548 185 375 C184.57895996 375.54462891 184.15791992 376.08925781 183.72412109 376.65039062 C146.06802633 425.64868261 126.76079404 488.86968474 133.76879883 550.68017578 C138.18236182 583.29637607 148.76204762 614.91568906 164 644 C164.4007373 644.77504883 164.80147461 645.55009766 165.21435547 646.34863281 C174.41049958 663.99086677 186.46144815 679.98734738 199.86328125 694.640625 C201.71171979 696.68167962 203.48334885 698.76374282 205.25 700.875 C238.49704257 738.75233845 288.87987853 763.68774688 338.82519531 767.82348633 C345.7324833 768.20751964 352.64663401 768.19697031 359.5625 768.1875 C360.37780182 768.18689575 361.19310364 768.1862915 362.03311157 768.18566895 C421.8687601 768.06585007 485.93637285 756.69479753 530.1875 713.25 C577.18634292 665.71138899 585.55100013 590.17912019 585.234375 526.54736328 C584.42384907 472.23368279 576.27234497 415.1368822 544 370 C543.5781543 369.40461426 543.15630859 368.80922852 542.72167969 368.19580078 C521.70437789 338.94902876 489.95170351 315.90415808 456 304 C455.31454102 303.7529834 454.62908203 303.5059668 453.92285156 303.25146484 C434.38370307 296.29334227 413.65376806 292.5898603 393 291 C391.90002686 290.91459961 390.80005371 290.82919922 389.66674805 290.74121094 C315.60694376 285.37532497 246.92974049 308.0902496 195.33007812 362.56054688 Z " fill="#0D2E33" transform="translate(965,0)"/>
<path d="M0 0 C0.83466797 0.00060425 1.66933594 0.0012085 2.52929688 0.00183105 C73.44373828 0.13939219 144.10228434 12.98358219 204.3125 52.1875 C205.10285645 52.70070801 205.89321289 53.21391602 206.70751953 53.74267578 C217.00702651 60.48256816 226.69299974 67.60546071 235.83251953 75.85449219 C237.17679255 77.06526927 238.53865012 78.25645138 239.90234375 79.4453125 C250.94828683 89.14855586 261.34610638 99.52188062 270.3125 111.1875 C270.75239258 111.74566406 271.19228516 112.30382812 271.64550781 112.87890625 C312.90121314 165.24735468 331.53181094 228.13766151 340.3125 293.1875 C340.46557617 294.30253906 340.61865234 295.41757812 340.77636719 296.56640625 C342.72579911 311.1280056 343.73833139 325.71162059 344.5 340.375 C344.56445816 341.60429733 344.56445816 341.60429733 344.63021851 342.85842896 C344.75288047 345.25303 344.8682503 347.64785721 344.98046875 350.04296875 C345.03176941 351.07008469 345.03176941 351.07008469 345.08410645 352.11795044 C345.71388067 366.44032243 345.17373227 380.73097415 344.57171631 395.04281616 C344.43329775 398.35041536 344.30017188 401.65819182 344.16845703 404.96606445 C343.79388105 414.3634415 343.41478641 423.76061302 343.02148438 433.15722656 C342.03126487 456.90155321 341.1258786 480.64218583 341.01495361 504.40957642 C341.00518719 506.42797664 340.99086244 508.44636139 340.97137451 510.46469116 C340.71163032 540.79256447 347.56348777 567.93851048 369.3125 590.1875 C382.40782443 602.2834444 398.93934766 608.46230742 415.15283203 615.24536133 C417.24593136 616.15845994 419.27425274 617.15897108 421.3125 618.1875 C420.08535164 626.07269299 418.57186573 633.82426572 416.71459961 641.58398438 C416.46232101 642.65220428 416.21004242 643.72042419 415.95011902 644.8210144 C415.12546374 648.30866475 414.29521631 651.79495689 413.46484375 655.28125 C412.88683148 657.72066329 412.30916469 660.16015847 411.73182678 662.59973145 C410.37252009 668.33973987 409.00965926 674.07889507 407.64505631 679.8176465 C405.9411736 686.98429263 404.24321458 694.15234007 402.54492188 701.3203125 C400.29267483 710.82283396 398.03891843 720.32499487 395.78100586 729.82617188 C395.54462402 730.82151947 395.30824219 731.81686707 395.06469727 732.84237671 C394.73881874 734.21294724 394.73881874 734.21294724 394.40635681 735.61120605 C394.2181433 736.40311089 394.02992979 737.19501572 393.83601284 738.01091766 C393.34006266 740.07290415 392.83040823 742.13093055 392.3125 744.1875 C356.24999136 741.00125426 322.45054587 719.96483023 295.3125 697.1875 C294.80187012 696.7656543 294.29124023 696.34380859 293.76513672 695.90917969 C280.70801494 685.10879741 268.76672741 673.55586877 258.3125 660.1875 C257.66152344 659.40375 257.01054687 658.62 256.33984375 657.8125 C250.41716108 650.65347205 245.37315749 642.96514983 240.3125 635.1875 C235.04608279 639.33340291 230.98792263 643.8643259 226.80078125 649.0859375 C214.1332658 664.87558784 200.37845919 679.79706241 184.3125 692.1875 C183.24929431 693.04961311 182.18820949 693.91434631 181.12890625 694.78125 C125.97306386 739.60182652 58.41490697 753.66646504 -11.125 746.9375 C-47.23715581 743.08489423 -82.64426941 734.46710424 -114.82324219 717.17626953 C-116.76550727 716.14612632 -118.72664906 715.16225481 -120.6953125 714.18359375 C-137.43908134 705.75556185 -153.23389827 695.11618242 -167.6875 683.1875 C-168.55568359 682.47158691 -168.55568359 682.47158691 -169.44140625 681.74121094 C-183.08553879 670.39282681 -195.74161066 658.18136903 -206.6875 644.1875 C-207.62610318 643.04716618 -208.56769595 641.90928876 -209.51171875 640.7734375 C-220.92325784 626.95742955 -230.23976409 611.96558837 -238.6875 596.1875 C-239.01814453 595.57680664 -239.34878906 594.96611328 -239.68945312 594.33691406 C-254.12891047 567.45311326 -263.13315982 538.1027068 -268.6875 508.1875 C-268.85266113 507.33542969 -269.01782227 506.48335937 -269.18798828 505.60546875 C-274.63716895 476.25765809 -274.23312895 442.48217574 -268.6875 413.1875 C-268.52121094 412.24148926 -268.35492187 411.29547852 -268.18359375 410.32080078 C-256.48377916 344.35767943 -221.53241319 284.89854303 -166.49023438 246.10351562 C-110.31309751 207.69949384 -46.37746478 193.09275127 20.875 192.8125 C21.87067993 192.80455414 22.86635986 192.79660828 23.89221191 192.78842163 C86.19766694 192.4057495 143.82601996 218.515606 188.09521484 261.93603516 C191.86106852 265.66023336 195.59452269 269.41555205 199.3125 273.1875 C185.83022118 225.18241631 161.07318229 184.79831107 116.87548828 159.60058594 C90.10131685 144.83883091 61.75061187 136.82097849 31.3125 134.1875 C30.15492188 134.07664062 28.99734375 133.96578125 27.8046875 133.8515625 C-11.97422926 130.67268578 -53.71281644 133.6098978 -91.6875 146.1875 C-92.46528809 146.43693359 -93.24307617 146.68636719 -94.04443359 146.94335938 C-118.88887834 155.00213695 -140.73699183 168.52122782 -160.6875 185.1875 C-163.91995404 183.80671364 -165.64023712 182.33852644 -167.75390625 179.546875 C-168.59731567 178.44617676 -168.59731567 178.44617676 -169.45776367 177.32324219 C-170.04920166 176.53594727 -170.64063965 175.74865234 -171.25 174.9375 C-172.50747578 173.29140939 -173.76529188 171.6455787 -175.0234375 170 C-175.64444336 169.18273437 -176.26544922 168.36546875 -176.90527344 167.5234375 C-179.36283047 164.30235453 -181.86444015 161.11732841 -184.375 157.9375 C-185.26444946 156.80739125 -186.15377314 155.6771835 -187.04296875 154.546875 C-187.47786621 153.99451172 -187.91276367 153.44214844 -188.36083984 152.87304688 C-190.63836206 149.97941173 -192.91274007 147.08330677 -195.1875 144.1875 C-196.1041523 143.02082204 -197.02081895 141.85415536 -197.9375 140.6875 C-203.4375 133.6875 -208.9375 126.6875 -214.4375 119.6875 C-214.89141113 119.10983887 -215.34532227 118.53217773 -215.81298828 117.93701172 C-216.72819993 116.77210823 -217.64323944 115.60706947 -218.55810547 114.44189453 C-220.87063021 111.49710955 -223.18624234 108.55484815 -225.5078125 105.6171875 C-231.34666022 98.22124627 -237.07353292 90.75595932 -242.6875 83.1875 C-241.14649202 79.01714715 -238.11491966 76.84726359 -234.6875 74.25 C-234.07156982 73.77691406 -233.45563965 73.30382812 -232.82104492 72.81640625 C-230.78466721 71.26237512 -228.73706802 69.72408338 -226.6875 68.1875 C-225.98963379 67.65882324 -225.29176758 67.13014648 -224.57275391 66.58544922 C-213.42920771 58.17393459 -201.9267486 50.89150772 -189.6875 44.1875 C-188.86942871 43.73133301 -188.05135742 43.27516602 -187.20849609 42.80517578 C-173.17647269 35.00414623 -158.73846817 28.75564467 -143.6875 23.1875 C-142.35017822 22.6927417 -142.35017822 22.6927417 -140.98583984 22.18798828 C-96.02169682 5.83194995 -47.64975826 -0.06496382 0 0 Z M-18.6875 329.1875 C-19.64430664 329.36941895 -20.60111328 329.55133789 -21.58691406 329.73876953 C-51.84420522 335.7186192 -80.23648943 348.91629524 -102.6875 370.1875 C-104.01587891 371.41919922 -104.01587891 371.41919922 -105.37109375 372.67578125 C-127.28361346 393.65585332 -139.3357478 420.6924663 -140.0234375 451.12109375 C-140.06425195 453.95604012 -140.07070189 456.78980052 -140.0625 459.625 C-140.06162384 460.36906097 -140.06074768 461.11312195 -140.05984497 461.87973022 C-139.89636282 504.16390762 -123.13870229 540.49152395 -94.6875 571.1875 C-94.16027344 571.78046875 -93.63304687 572.3734375 -93.08984375 572.984375 C-83.04026595 583.7793179 -69.66722014 591.47563972 -56.6875 598.1875 C-55.76783447 598.66678955 -55.76783447 598.66678955 -54.82958984 599.15576172 C-29.65717395 612.09017794 -1.93048343 616.4218499 26.125 616.375 C27.21506348 616.37359512 27.21506348 616.37359512 28.32714844 616.37216187 C78.90162905 616.23150783 129.59772599 603.11638 166.203125 566.32421875 C193.28216228 538.23305617 204.91705359 501.99335267 204.52734375 463.4765625 C203.70761628 429.35349728 184.76815838 397.67452595 160.796875 374.42578125 C132.60643145 349.0277873 97.2936524 334.17680937 60.3125 327.1875 C59.60496582 327.05182617 58.89743164 326.91615234 58.16845703 326.77636719 C33.25282035 322.26473698 5.94839969 324.46891487 -18.6875 329.1875 Z " fill="#0D2E33" transform="translate(1984.6875,151.8125)"/>
<path d="M0 0 C0.51256348 0.45616699 1.02512695 0.91233398 1.55322266 1.38232422 C12.21644231 10.9174787 22.08995881 20.79012676 31 32 C31.9460129 33.14610531 32.89402673 34.29056116 33.84375 35.43359375 C82.33338716 94.18763344 102.00392324 171.35271334 95.359375 246.43017578 C90.39417379 295.75162425 72.25343735 345.90489962 40 384 C39.21753906 384.96550781 38.43507813 385.93101562 37.62890625 386.92578125 C26.24761474 400.86721522 13.55588169 413.40485033 -1 424 C-1.66644531 424.48952148 -2.33289063 424.97904297 -3.01953125 425.48339844 C-42.26734723 454.19110057 -86.23027144 471.67363411 -134.25 479.25 C-135.68255127 479.47671387 -135.68255127 479.47671387 -137.14404297 479.70800781 C-156.44642863 482.55405769 -175.69627625 483.40946262 -195.1875 483.375 C-196.35087891 483.37445618 -197.51425781 483.37391235 -198.71289062 483.37335205 C-215.78300837 483.33669447 -232.31865026 482.9601253 -249 479 C-249.91894043 478.78569336 -250.83788086 478.57138672 -251.78466797 478.35058594 C-300.25956029 466.62650531 -340.5118866 437.94727468 -375 403 C-361.41168519 451.34572387 -336.37057027 491.63478867 -292 517 C-286.76914751 519.8865609 -281.42492506 522.50033114 -276 525 C-275.34483398 525.30534668 -274.68966797 525.61069336 -274.01464844 525.92529297 C-243.47420485 539.95232849 -209.29786479 543.23082065 -176.0625 543.1875 C-175.20316864 543.18689575 -174.34383728 543.1862915 -173.45846558 543.18566895 C-159.88860605 543.1598321 -146.46642467 542.81625225 -133 541 C-132.04206543 540.87109375 -131.08413086 540.7421875 -130.09716797 540.609375 C-90.36577327 535.03575509 -53.11952369 522.1570741 -21.93774414 496.47021484 C-21.22094482 495.88965332 -20.50414551 495.3090918 -19.765625 494.7109375 C-19.13430664 494.18806152 -18.50298828 493.66518555 -17.85253906 493.12646484 C-16 492 -16 492 -12 492 C-9.99747032 494.10036319 -8.29737259 496.13053422 -6.5625 498.4375 C-6.04099365 499.10982666 -5.5194873 499.78215332 -4.98217773 500.47485352 C-3.30802087 502.6399567 -1.65260155 504.8184115 0 507 C1.0724436 508.40661081 2.14535535 509.81286481 3.21875 511.21875 C4.83625415 513.33797542 6.45291023 515.4577889 8.06542969 517.58081055 C12.37336498 523.23545728 16.82748192 528.75791495 21.33129883 534.25708008 C25.50418544 539.36135245 29.54313799 544.55247965 33.54296875 549.79296875 C36.14402742 553.19854335 38.7870415 556.5702978 41.4375 559.9375 C41.89382813 560.51757812 42.35015625 561.09765625 42.8203125 561.6953125 C45.15187479 564.65738178 47.48703361 567.61658488 49.82421875 570.57421875 C55.66100335 577.96943699 61.38712753 585.43301637 67 593 C65.41873288 597.42754793 61.92058923 599.90548635 58.375 602.75 C57.68277344 603.3078418 56.99054687 603.86568359 56.27734375 604.44042969 C41.60336975 616.01811888 25.65657324 626.49194131 9 635 C8.04319336 635.49064941 7.08638672 635.98129883 6.10058594 636.48681641 C-9.86421254 644.59580447 -25.96149156 651.49085479 -43 657 C-44.46203857 657.47493896 -44.46203857 657.47493896 -45.95361328 657.95947266 C-71.67662972 666.18173546 -98.20206029 670.95909904 -125 674 C-126.02512695 674.11859375 -127.05025391 674.2371875 -128.10644531 674.359375 C-161.13580193 677.97785033 -195.99253185 677.64767216 -229 674 C-230.18400391 673.87109375 -231.36800781 673.7421875 -232.58789062 673.609375 C-259.60398477 670.56212887 -286.12253296 665.3977924 -312 657 C-312.81549316 656.73638672 -313.63098633 656.47277344 -314.47119141 656.20117188 C-364.47793353 639.69429278 -413.7083729 606.86359152 -446 565 C-446.44134277 564.44038574 -446.88268555 563.88077148 -447.33740234 563.30419922 C-479.4132492 522.58535763 -498.56492327 474.40429265 -509 424 C-509.23557617 422.87029785 -509.47115234 421.7405957 -509.71386719 420.57666016 C-512.41227087 407.41761168 -514.49661169 394.19731005 -516.1875 380.875 C-516.3424292 379.66279785 -516.4973584 378.4505957 -516.65698242 377.20166016 C-519.29410917 355.38973648 -520.36830188 333.71483999 -520.3125 311.75 C-520.31206887 310.41358445 -520.3119109 309.07716879 -520.31201172 307.74075317 C-520.30207588 284.44642573 -519.49867003 261.20777464 -518.5 237.9375 C-517.51866473 215.03644015 -516.67879997 192.17551327 -516.625 169.25 C-516.61750732 168.16177948 -516.61001465 167.07355896 -516.60229492 165.95236206 C-516.43170738 136.37049228 -522.70094416 108.81854501 -544 87 C-557.00445283 74.95516328 -572.58984667 68.55957099 -588.796875 61.96386719 C-591.58413755 60.74443982 -594.28252709 59.36690695 -597 58 C-594.43236885 44.32063737 -591.2078792 30.79916363 -588.01953125 17.25390625 C-587.44067869 14.78674755 -586.86204358 12.31953783 -586.28361511 9.85227966 C-584.92554818 4.06184328 -583.56531815 -1.72808211 -582.20399541 -7.51775366 C-580.65181539 -14.11969302 -579.10246642 -20.72229577 -577.55333102 -27.3249501 C-574.37199172 -40.88402987 -571.18717573 -54.44229104 -568 -68 C-551.05175478 -65.93867225 -535.25082423 -60.5749127 -520 -53 C-519.29568848 -52.65598145 -518.59137695 -52.31196289 -517.86572266 -51.95751953 C-498.3639525 -42.35657921 -480.24536391 -29.80058076 -464.26171875 -15.078125 C-462.20973584 -13.19271065 -460.11848046 -11.37229967 -458 -9.5625 C-442.83899066 3.66892633 -429.90427564 19.39004979 -419.17260742 36.37719727 C-418.16338315 37.95019654 -417.08769642 39.480205 -416 41 C-415.34 41 -414.68 41 -414 41 C-412.6672812 39.53309441 -411.41086131 37.99677499 -410.1875 36.4375 C-396.78979728 19.69576519 -382.73161365 2.79087202 -365.9375 -10.62109375 C-363.89887551 -12.27205427 -361.90870792 -13.93348264 -359.9375 -15.66015625 C-285.97661159 -80.32729019 -174.54841222 -86.69065291 0 0 Z M-342 110 C-345.23375329 113.51093214 -348.15162023 117.17266252 -351 121 C-352.01126953 122.30710937 -352.01126953 122.30710937 -353.04296875 123.640625 C-373.65088503 150.90525699 -383.28171367 186.6940304 -379.71582031 220.7109375 C-375.41083556 251.08820259 -360.40522451 277.47746769 -339 299 C-338.28505371 299.72098877 -338.28505371 299.72098877 -337.55566406 300.45654297 C-309.09756577 328.74861941 -269.09866458 344.320481 -230 350 C-229.3395166 350.1023999 -228.6790332 350.2047998 -227.99853516 350.31030273 C-204.47579687 353.48373397 -179.13690315 351.6765672 -156 347 C-155.06462402 346.81808105 -154.12924805 346.63616211 -153.16552734 346.44873047 C-114.63973716 338.78739064 -78.56395489 318.92906129 -55.3125 286.75 C-47.05186669 274.33688376 -41.4883732 261.48842692 -38 247 C-37.76539063 246.03320312 -37.53078125 245.06640625 -37.2890625 244.0703125 C-29.5682479 205.46623952 -39.30628884 163.59262763 -60.1171875 130.6484375 C-84.25779365 94.65230235 -119.37405857 72.45935083 -161.5 63.25 C-224.52336308 51.82194382 -294.90862452 64.44697265 -342 110 Z " fill="#0D2E33" transform="translate(597,224)"/>
<path d="M0 0 C43.56 0 87.12 0 132 0 C132.33 94.71 132.66 189.42 133 287 C137.29 280.07 141.58 273.14 146 266 C149.26594176 261.26040159 152.53483296 256.58657149 156 252 C156.42990234 251.42733398 156.85980469 250.85466797 157.30273438 250.26464844 C164.03291179 241.34839149 171.25203586 233.04154433 179 225 C179.66418945 224.30326172 180.32837891 223.60652344 181.01269531 222.88867188 C191.29440002 212.14492052 201.87268003 202.60483695 214 194 C214.58185059 193.57348145 215.16370117 193.14696289 215.76318359 192.70751953 C266.47619551 155.56497475 330.86508171 146.87679881 391.8125 156.21484375 C411.7028864 159.55753369 430.94158364 164.96199142 449 174 C449.96873047 174.47324707 449.96873047 174.47324707 450.95703125 174.95605469 C484.62551239 191.49886747 511.69701463 218.47480824 530 251 C530.3398291 251.59071289 530.6796582 252.18142578 531.02978516 252.79003906 C556.14819979 296.58809729 564.1951948 349.56968952 564.12025452 399.38044739 C564.12069108 401.54481303 564.12156757 403.70917861 564.12284368 405.87354392 C564.12507183 411.79580069 564.12109041 417.71803926 564.11606562 423.64029372 C564.11173713 430.03617133 564.11320925 436.43204797 564.1139679 442.82792664 C564.11449161 453.90087442 564.11139577 464.9738162 564.10573006 476.04676247 C564.09980556 487.65531251 564.0959626 499.26386019 564.09487724 510.87241173 C564.0948085 511.59519113 564.09473976 512.31797054 564.09466894 513.06265235 C564.09433059 516.73353933 564.09402921 520.40442631 564.09374207 524.07531329 C564.09164371 550.05126841 564.08491211 576.02722045 564.07543945 602.00317383 C564.06624965 627.23266585 564.05916867 652.46215703 564.05493164 677.69165039 C564.05473435 678.85893141 564.05473435 678.85893141 564.05453308 680.04979386 C564.05321451 687.86493356 564.05193871 695.68007326 564.05069422 703.49521297 C564.04815825 719.41442649 564.045337 735.33363995 564.04234314 751.25285339 C564.04220585 751.98473384 564.04206856 752.71661429 564.04192711 753.47067293 C564.03770546 775.89587969 564.03227504 798.32108594 564.02565002 820.74629211 C564.02527947 822.00225153 564.02490891 823.25821094 564.02452713 824.55222972 C564.01703378 849.7014867 564.00836477 874.8507433 564 900 C520.44 900 476.88 900 432 900 C431.9906543 884.51022217 431.98130859 869.02044434 431.97167969 853.0612793 C431.96485254 842.71424826 431.95794346 832.36721766 431.95013428 822.02018738 C431.94963908 821.36269732 431.94914388 820.70520727 431.94863368 820.02779327 C431.93187592 797.87243001 431.90965649 775.71707572 431.88336182 753.5617218 C431.88207555 752.47617626 431.88207555 752.47617626 431.8807633 751.3687005 C431.86209295 735.63670333 431.84253994 719.90470737 431.82207905 704.17271243 C431.81204882 696.4565318 431.80221342 688.74035093 431.79248047 681.02416992 C431.79102276 679.87245742 431.79102276 679.87245742 431.7895356 678.697478 C431.75818932 653.85927023 431.73968095 629.02107329 431.72790753 604.18284918 C431.71572945 578.63516671 431.69044503 553.08752935 431.64892386 527.53987693 C431.64305071 523.92245185 431.6373257 520.30502655 431.63169098 516.68760109 C431.63057752 515.97571586 431.62946406 515.26383064 431.62831686 514.53037313 C431.61085114 503.12106613 431.60699605 491.71179415 431.60837079 480.30247557 C431.60946098 468.80191152 431.59556213 457.30146044 431.56783572 445.80092492 C431.55326902 439.58198592 431.54491828 433.36321342 431.55419731 427.14426041 C431.60088318 391.75342271 431.34133668 357.46557039 416.0625 324.75 C415.66788574 323.90453613 415.27327148 323.05907227 414.86669922 322.18798828 C406.62665034 305.43111025 394.33547874 296.2563422 377.1875 289.96875 C342.22106296 279.3082509 297.47864768 287.36021413 265.60449219 303.95703125 C263.72986887 304.95989252 261.86501312 305.97940813 260 307 C258.83339844 307.61488281 257.66679687 308.22976563 256.46484375 308.86328125 C246.95977623 314.03909592 238.46224282 320.28254951 230 327 C229.42894531 327.45246094 228.85789062 327.90492188 228.26953125 328.37109375 C214.16090869 339.66469423 201.70340007 352.44666294 191 367 C190.57380371 367.57073242 190.14760742 368.14146484 189.70849609 368.72949219 C148.76832958 423.65716168 132.3115541 489.81189708 132.45119452 557.35467577 C132.45622988 561.95954435 132.43794464 566.5643359 132.42277527 571.16917419 C132.3996769 579.10972387 132.39070512 587.05018279 132.39188385 594.99076462 C132.39356673 606.47088214 132.3730811 617.95088013 132.34752855 629.4309655 C132.30663782 648.06562481 132.28318333 666.70026234 132.27099609 685.33496094 C132.25913334 703.41538583 132.23887094 721.49576982 132.20751953 739.57617188 C132.20558343 740.6943875 132.20364733 741.81260313 132.20165256 742.96470408 C132.19188664 748.57558016 132.18195777 754.18645593 132.17194796 759.79733157 C132.08937872 806.19821454 132.03850095 852.59905544 132 899 C88.44 899 44.88 899 0 899 C0 602.33 0 305.66 0 0 Z " fill="#0D2E33" transform="translate(2443,0)"/>
<path d="M0 0 C43.56 0 87.12 0 132 0 C132 297 132 594 132 900 C88.44 900 44.88 900 0 900 C0 603 0 306 0 0 Z " fill="#0D2E33" transform="translate(757,0)"/>
<path d="M0 0 C43.56 0 87.12 0 132 0 C132 235.95 132 471.9 132 715 C88.44 715 44.88 715 0 715 C0 479.05 0 243.1 0 0 Z " fill="#0D2E33" transform="translate(3083,185)"/>
<path d="M0 0 C3.84423069 4.65967356 2.90462464 8.89084755 2.37417603 14.53659058 C1.7873219 19.96856903 1.08666231 25.3825238 0.3493557 30.79597282 C0.06516859 32.88286495 -0.21523912 34.97023745 -0.49479675 37.05775452 C-0.89328201 40.03089582 -1.29317876 43.00384157 -1.69433594 45.97662354 C-2.72779316 53.63824379 -3.75161811 61.30114355 -4.76953125 68.96484375 C-4.91874464 70.08803513 -4.91874464 70.08803513 -5.07097244 71.23391724 C-6.86284292 84.74773795 -8.51186339 98.27368842 -9.9465332 111.83032227 C-10.07761475 113.05420654 -10.20869629 114.27809082 -10.34375 115.5390625 C-10.44880859 116.56209473 -10.55386719 117.58512695 -10.66210938 118.63916016 C-11 121 -11 121 -12 123 C-1.85514437 121.30423234 8.2458328 119.39815048 18.33392334 117.39312744 C20.2679988 117.00884204 22.2025974 116.62719258 24.13720703 116.24560547 C29.96304107 115.07982791 35.73510742 113.8409545 41.484375 112.33984375 C45.68598704 111.26671842 49.57655401 110.5679993 53.9375 110.5625 C54.97777344 110.54316406 56.01804687 110.52382813 57.08984375 110.50390625 C60.71163685 111.12131259 62.37672911 112.47997054 65 115 C66.62859253 118.25718506 66.54333656 121.4806609 66 125 C63.60936062 130.70868197 60.38600937 133.93122722 55 137 C52.17475583 138.03727348 49.30974209 138.71875542 46.375 139.375 C45.49980713 139.57706055 44.62461426 139.77912109 43.72290039 139.98730469 C34.35490972 142.06227891 24.89745084 143.66044674 15.4375 145.25 C14.66436462 145.38073914 13.89122925 145.51147827 13.09466553 145.6461792 C10.83365456 146.02580174 8.57146636 146.3972763 6.30859375 146.765625 C5.64964615 146.87582977 4.99069855 146.98603455 4.31178284 147.09957886 C-1.762897 148.06837485 -7.86851498 148.53912299 -14 149 C-17.87653197 194.30306549 -21.48985614 239.59729268 -24 285 C-24.06058594 286.08190613 -24.12117188 287.16381226 -24.18359375 288.27850342 C-25.61224534 313.98083848 -26.19200149 339.66231823 -26.24497986 365.40080643 C-26.24989713 367.45698647 -26.25779603 369.51313717 -26.26623535 371.56930542 C-27.75202311 417.29380691 -27.75202311 417.29380691 -14 460 C2.25243888 458.07947546 16.4436407 442.6833425 26.625 430.8125 C34.03431737 422.35186057 34.03431737 422.35186057 38.26953125 421.59375 C44.16974256 421.36498575 44.16974256 421.36498575 46.7109375 423.30859375 C48.96421936 426.26517268 49.1768836 429.41353243 49 433 C47.1189658 441.54244102 41.68981127 447.63054818 36 454 C35.3510376 454.73935791 35.3510376 454.73935791 34.68896484 455.49365234 C20.79387558 471.31197257 2.95023829 489.63790608 -19.26953125 491.43359375 C-30.98087743 491.9689918 -40.79687835 489.74983006 -49.94140625 482.0234375 C-73.13800421 459.22298638 -71.69290801 416.87261637 -72.02215576 386.98907471 C-72.09216779 378.32606225 -72.06515014 369.66296405 -72 361 C-72.25990723 361.61069336 -72.51981445 362.22138672 -72.78759766 362.85058594 C-82.95558916 386.62438142 -93.65451768 410.41040596 -108 432 C-108.48178711 432.72751465 -108.96357422 433.4550293 -109.45996094 434.20458984 C-115.94077923 443.89630151 -122.86115211 452.65087792 -131 461 C-131.72445312 461.79792969 -132.44890625 462.59585937 -133.1953125 463.41796875 C-143.09254625 474.02736508 -155.72753656 481.87406289 -170.36328125 483.3359375 C-190.89017133 483.94035329 -208.92317204 477.40400954 -225 465 C-225.72574219 464.45859375 -226.45148437 463.9171875 -227.19921875 463.359375 C-249.01385401 445.83686879 -258.37595499 417.08217723 -265 391 C-265.43699219 392.01030273 -265.43699219 392.01030273 -265.8828125 393.04101562 C-271.31539612 405.5718335 -276.73731313 418.07473559 -283.05712891 430.18798828 C-284.0233562 432.04488599 -284.97091863 433.9106038 -285.91796875 435.77734375 C-296.26896486 455.94219479 -311.39410747 482.21711082 -333.9375 489.8125 C-343.79774962 492.4388983 -353.96051866 491.31813402 -362.96484375 486.37109375 C-376.41424404 477.23878491 -382.28987353 463.14015465 -385.43066406 447.66259766 C-387.31605836 437.60153577 -388.15519457 427.64112147 -388.203125 417.41796875 C-388.21330658 415.89060341 -388.21330658 415.89060341 -388.22369385 414.3323822 C-388.2408536 410.9507239 -388.24693329 407.56919938 -388.25 404.1875 C-388.25233643 403.00516785 -388.25467285 401.82283569 -388.25708008 400.60467529 C-388.27231655 379.74075519 -387.50550148 358.96037497 -386.5 338.125 C-385.50521437 317.45289112 -384.69073936 296.82734053 -384.6875 276.125 C-384.68427734 275.13437561 -384.68105469 274.14375122 -384.67773438 273.12310791 C-384.64866459 258.77444157 -384.76603825 244.56071907 -390 231 C-404.46130167 236.85338401 -412.18295131 257.32262707 -417.96777344 270.6887207 C-429.82543276 299.45748667 -438.14860494 329.92917219 -446 360 C-446.21893921 360.83535278 -446.43787842 361.67070557 -446.66345215 362.53137207 C-455.71600644 397.11610825 -463.99691569 431.99079341 -469.41748047 467.35131836 C-470.61774239 474.92189317 -471.8263108 481.0474791 -478.3046875 485.8984375 C-486.31213846 491.10143559 -495.73962955 491.05383206 -505 490 C-510.45837379 488.53286485 -514.3717182 485.2879694 -518 481 C-519.75808787 475.72573639 -519.16807597 470.09396902 -519.15625 464.57421875 C-519.15488289 463.56929666 -519.15488289 463.56929666 -519.15348816 462.5440731 C-519.12104723 448.266117 -518.42010837 434.0600704 -517.5 419.8125 C-517.41594074 418.46446239 -517.33230192 417.1163985 -517.24905396 415.76831055 C-515.36470241 385.31397667 -512.98451928 354.89478609 -510.66889572 324.47093964 C-507.5058719 282.97771521 -507.5058719 282.97771521 -505.0625 241.4375 C-505.00550934 240.30532043 -504.94851868 239.17314087 -504.88980103 238.00665283 C-504.36823217 227.43180304 -503.9620372 216.86373409 -503.78515625 206.27734375 C-503.76951126 205.45546066 -503.75386627 204.63357758 -503.73774719 203.78678894 C-503.66977522 200.13198814 -503.62280915 196.48134941 -503.64086914 192.82592773 C-503.56449206 185.74088642 -503.14111192 180.24156451 -498 175 C-491.62222071 170.62939648 -484.43048517 171.0795403 -477 172 C-470.20793615 174.27159326 -465.14084913 177.06447134 -461 183 C-459.9143608 186.2569176 -459.87308098 188.62836658 -459.87060547 192.05566406 C-459.86593765 193.94063095 -459.86593765 193.94063095 -459.86117554 195.86367798 C-459.86298057 197.24766059 -459.8649905 198.63164295 -459.8671875 200.015625 C-459.86617286 201.45291164 -459.864834 202.89019808 -459.8631897 204.32748413 C-459.86048985 208.17352046 -459.8649515 212.0195165 -459.87142944 215.86554718 C-459.87499382 218.24587627 -459.87661658 220.62619934 -459.87768555 223.00653076 C-459.88867715 242.66476119 -459.98004757 262.31284048 -460.64404297 281.96191406 C-460.9931884 292.31261817 -461.05084097 302.64397624 -461 313 C-460.76925781 312.23671387 -460.53851562 311.47342773 -460.30078125 310.68701172 C-433.08935323 220.99954319 -433.08935323 220.99954319 -393 199 C-383.927632 194.75170418 -373.65189648 193.66990174 -364.171875 197.06640625 C-354.54648736 201.20393799 -348.05667779 209.3927661 -344.09375 218.8984375 C-331.72804259 253.96405064 -337.57825932 294.2373888 -340.02734375 330.578125 C-340.11832614 331.93045455 -340.2092939 333.28278507 -340.30024719 334.63511658 C-340.34552016 335.30818376 -340.39079313 335.98125093 -340.43743801 336.67471409 C-348.54510173 399.71746757 -348.54510173 399.71746757 -334 459 C-330.78858006 459.0802855 -328.66843827 458.55131874 -326.171875 456.4921875 C-298.91459253 427.35127168 -285.63186135 382.58230996 -271.77099609 346.00927734 C-271.11045096 344.28784403 -270.42398978 342.57639385 -269.73242188 340.8671875 C-266.81975734 333.49060692 -265.7238705 326.07878348 -264.625 318.25 C-259.32947031 282.91876456 -248.16567095 248.7849011 -225 221 C-224.54125488 220.44489746 -224.08250977 219.88979492 -223.60986328 219.31787109 C-208.94965921 201.81748344 -187.14697964 186.76202611 -164 184 C-151.26317024 183.22537725 -140.15122417 183.80125068 -129.84375 192.25 C-120.87329868 200.76432668 -116.24314101 211.32670911 -115.76171875 223.66796875 C-115.38009958 242.44773886 -118.51463292 258.23632701 -127 275 C-127.33660645 275.66773438 -127.67321289 276.33546875 -128.02001953 277.0234375 C-135.7057141 292.00032062 -146.00535387 304.24360103 -157.51367188 316.41210938 C-159.00262772 318.00280727 -160.46574002 319.61361641 -161.921875 321.234375 C-166.39182125 326.20633884 -170.86551962 331.01693004 -176.0078125 335.3125 C-177.41214409 336.50205147 -178.77930813 337.73617299 -180.1171875 339 C-185.29561851 343.8820225 -190.76511459 348.14138239 -196.5625 352.25 C-197.25851318 352.7452417 -197.95452637 353.2404834 -198.67163086 353.75073242 C-203.60110107 357.1890509 -208.69818022 360.17298206 -214 363 C-212.40294363 392.07989066 -209.26792365 430.1871296 -187.703125 452.48046875 C-182.77952308 456.87331542 -178.27887658 458.76056967 -171.60546875 458.4375 C-162.2131441 456.86037802 -155.5633959 450.45146202 -149 444 C-148.45794922 443.48421387 -147.91589844 442.96842773 -147.35742188 442.43701172 C-143.01640359 438.23567966 -139.37121716 433.79482655 -135.875 428.875 C-135.3186084 428.09495605 -134.7622168 427.31491211 -134.18896484 426.51123047 C-108.97910403 390.72102863 -89.79248106 350.13670843 -75 309 C-74.50842155 307.73852646 -74.50842155 307.73852646 -74.00691223 306.4515686 C-71.06913182 298.46807017 -70.24749023 291.08830728 -69.91015625 282.625 C-69.84161284 281.23588701 -69.77131717 279.84685956 -69.69941711 278.45791626 C-69.54904613 275.50575619 -69.40790635 272.55337109 -69.27435303 269.60040283 C-68.91786978 261.76004366 -68.49396998 253.92311683 -68.07421875 246.0859375 C-68.03208504 245.29023724 -67.98995132 244.49453697 -67.94654083 243.67472458 C-67.05794934 226.96479456 -65.79433951 210.2974536 -64.375 193.625 C-64.27067657 192.38121582 -64.16635315 191.13743164 -64.05886841 189.85595703 C-62.96498336 176.86735656 -61.78306449 163.91430569 -60 151 C-61.42203735 151.02356567 -61.42203735 151.02356567 -62.87280273 151.04760742 C-91.78983947 151.48152334 -119.8124228 149.57301392 -148.4375 145.5625 C-149.15287933 145.4653067 -149.86825867 145.3681134 -150.60531616 145.26797485 C-170.87898331 142.47487854 -170.87898331 142.47487854 -177.625 135.6875 C-179.61320697 133.04408846 -180.02984694 131.82987242 -180.625 128.4375 C-179.67100891 123.19054903 -177.70933711 120.22095508 -173.375 117.125 C-165.66008788 114.55336263 -157.67316425 116.24478744 -149.875 117.75 C-119.25369179 123.19193768 -88.02517647 124.73471595 -57 126 C-56.93119629 125.21657227 -56.86239258 124.43314453 -56.79150391 123.62597656 C-54.55709982 98.89857137 -51.47617464 74.28034367 -48.27440643 49.66300964 C-47.93778702 47.06471548 -47.60489367 44.46596843 -47.27301025 41.86706543 C-46.7411707 37.7072454 -46.19909162 33.54887969 -45.64931297 29.39139366 C-45.44541139 27.83892739 -45.24465114 26.28604482 -45.04726601 24.73273659 C-42.5248625 4.94427824 -42.5248625 4.94427824 -37.125 0.125 C-27.15424092 -6.65511618 -9.87536464 -7.8043163 0 0 Z M-185.60693359 235.00268555 C-202.11430916 260.23619407 -208.62707997 290.5028913 -212.4375 320 C-212.52735168 320.68847015 -212.61720337 321.37694031 -212.70977783 322.08627319 C-214.15772004 329.20580499 -214.15772004 329.20580499 -213 336 C-205.46694425 330.59062486 -198.49510982 324.8956487 -191.73828125 318.55078125 C-189.5174147 316.48198545 -187.26345262 314.50947867 -184.9375 312.5625 C-162.34011421 292.86581383 -142.03795769 263.37957694 -139 233 C-138.87112923 225.37821429 -139.91678179 219.44594976 -145.125 213.625 C-160.34914069 205.02005091 -177.91362842 223.7924866 -185.60693359 235.00268555 Z " fill="#0D2E33" transform="translate(3810,212)"/>
<path d="M0 0 C43.56 0 87.12 0 132 0 C132 45.87 132 91.74 132 139 C88.44 139 44.88 139 0 139 C0 93.13 0 47.26 0 0 Z " fill="#0D2E33" transform="translate(3083,0)"/>
<path d="M0 0 C14.92602822 11.75589833 24.15589607 27.97066139 27.46484375 46.62109375 C27.59363988 47.99400571 27.69549727 49.36958481 27.77734375 50.74609375 C27.85662109 52.05126953 27.85662109 52.05126953 27.9375 53.3828125 C28.5292594 72.6535859 21.8090993 91.25760095 8.66503906 105.38061523 C-4.186566 118.57445962 -20.78171184 126.56772479 -39.33642578 127.0390625 C-58.61028843 127.2055394 -77.0298852 121.57615499 -91.19262695 108.02734375 C-105.36865457 93.72112562 -112.56537539 76.61489968 -112.66015625 56.55859375 C-112.56861943 48.60431307 -111.96612229 41.27674143 -109.22265625 33.74609375 C-108.89394531 32.76898437 -108.56523437 31.791875 -108.2265625 30.78515625 C-101.56606476 12.85481978 -87.70642665 0.21689154 -70.84765625 -8.00390625 C-47.31575117 -18.04639532 -20.8157636 -14.5584189 0 0 Z " fill="#65C39E" transform="translate(3403.22265625,773.25390625)"/>
</svg>
