<?xml version="1.0" encoding="UTF-8"?>
<svg version="1.1" xmlns="http://www.w3.org/2000/svg" width="32" height="32">
<path d="M0 0 C10.56 0 21.12 0 32 0 C32 10.56 32 21.12 32 32 C21.44 32 10.88 32 0 32 C0 21.44 0 10.88 0 0 Z " fill="#0A3135" transform="translate(0,0)"/>
<path d="M0 0 C0.928125 0.37125 1.85625 0.7425 2.8125 1.125 C3.864375 1.41375 4.91625 1.7025 6 2 C6.99 1.34 7.98 0.68 9 0 C13.86581934 -0.5493667 15.8976444 -0.73490373 20 2 C22.77041398 6.15562097 22.70476018 8.06667872 22 13 C20.12984906 15.43119623 18.71861655 16.64069173 16 18 C14.00039988 18.039992 11.99952758 18.04346799 10 18 C10 18.33 10 18.66 10 19 C13.3 19 16.6 19 20 19 C20 20.32 20 21.64 20 23 C16.28546768 24.85726616 12.04420575 24.58501089 8 24 C5.17575712 21.80977082 3.58491397 20.16982793 2 17 C1.79434269 15.06624999 1.63396054 13.12753572 1.5 11.1875 C1.23466516 7.37331166 0.82838359 3.73462935 0 0 Z " fill="#D5E1BE" transform="translate(5,4)"/>
<path d="M0 0 C0.625 2.875 0.625 2.875 1 6 C-1 8 -1 8 -4.5 8.25 C-8 8 -8 8 -10 6 C-10.3125 3.5 -10.3125 3.5 -10 1 C-6.1496895 -1.56687367 -4.41430237 -0.83288724 0 0 Z " fill="#0E3437" transform="translate(22,9)"/>
<path d="M0 0 C1.41750563 0.11509661 2.83401169 0.24253658 4.25 0.375 C5.03890625 0.44460937 5.8278125 0.51421875 6.640625 0.5859375 C9.085877 1.01507113 10.84836903 1.78600638 13 3 C9.41996227 4.19334591 6.75684104 4.33543224 3 4 C1.0625 2 1.0625 2 0 0 Z " fill="#2C4E4C" transform="translate(12,20)"/>
</svg>
